<?xml version="1.0" standalone="no"?>
<!DOCTYPE svg PUBLIC "-//W3C//DTD SVG 20010904//EN"
 "http://www.w3.org/TR/2001/REC-SVG-20010904/DTD/svg10.dtd">
<svg version="1.0" xmlns="http://www.w3.org/2000/svg"
 width="512.000000pt" height="512.000000pt" viewBox="0 0 512.000000 512.000000"
 preserveAspectRatio="xMidYMid meet">

<g transform="translate(0.000000,512.000000) scale(0.100000,-0.100000)"
fill="#000000" stroke="none">
<path d="M3235 4944 c-159 -34 -324 -144 -420 -278 -107 -150 -156 -306 -157
-491 -1 -188 52 -345 174 -523 63 -90 234 -271 364 -384 l94 -81 0 -121 0
-121 -374 -202 c-205 -112 -380 -211 -389 -221 -27 -29 -22 -98 8 -127 46 -47
60 -41 493 193 221 120 413 229 427 242 25 23 25 26 25 186 l0 162 103 88
c289 251 438 447 509 674 20 65 23 95 23 225 0 159 -8 202 -62 335 -37 92
-125 221 -188 277 -76 67 -167 120 -260 149 -102 33 -265 41 -370 18z m284
-189 c191 -50 337 -208 391 -421 23 -87 26 -223 9 -306 -15 -71 -78 -205 -133
-282 -63 -88 -172 -202 -293 -307 l-104 -90 -72 63 c-335 294 -472 515 -471
758 0 113 20 196 71 300 66 136 212 257 349 289 61 14 193 12 253 -4z"/>
<path d="M3307 4590 c-107 -27 -205 -107 -254 -208 -24 -50 -27 -69 -28 -152
0 -88 3 -101 32 -161 39 -79 102 -140 181 -177 49 -23 70 -27 152 -27 88 0
101 3 162 33 78 38 139 101 176 182 22 46 26 70 26 145 1 80 -2 97 -30 155
-60 126 -174 205 -309 214 -38 3 -87 1 -108 -4z m184 -214 c90 -60 106 -191
31 -269 -39 -42 -75 -57 -132 -57 -104 0 -180 77 -180 181 0 142 160 225 281
145z"/>
<path d="M791 3931 c-354 -90 -601 -413 -618 -811 -11 -240 54 -428 230 -666
60 -81 299 -322 410 -413 l77 -64 0 -216 0 -217 38 -36 c68 -66 1617 -1330
1640 -1339 13 -5 344 -9 760 -9 708 0 738 1 768 19 56 34 316 262 423 370 232
236 373 476 417 709 24 128 15 344 -20 471 -151 543 -646 827 -1151 660 -270
-90 -484 -317 -578 -614 -37 -118 -48 -194 -48 -325 1 -329 142 -603 488 -947
l154 -153 -574 0 -573 0 -120 98 c-65 54 -396 325 -734 601 -338 277 -619 507
-623 511 -4 4 178 108 405 231 227 123 423 234 436 246 51 50 6 153 -68 153
-22 0 -152 -66 -435 -220 -222 -121 -408 -220 -414 -220 -7 0 -11 39 -11 113
l0 112 101 85 c145 121 313 291 392 395 83 111 157 253 193 371 24 79 27 106
28 239 1 126 -3 164 -23 240 -79 305 -281 529 -555 617 -91 30 -315 34 -415 9z
m343 -187 c318 -77 525 -454 450 -822 -19 -94 -93 -250 -165 -347 -61 -82
-263 -284 -367 -369 l-72 -58 -83 70 c-118 100 -305 296 -367 383 -119 168
-170 313 -170 479 0 222 102 442 260 561 151 114 326 149 514 103z m3104
-1525 c264 -81 446 -296 507 -598 26 -127 17 -319 -19 -426 -34 -99 -90 -205
-164 -309 -69 -96 -257 -290 -405 -415 l-108 -92 -41 33 c-151 119 -367 335
-459 459 -160 214 -221 376 -221 584 0 340 188 637 472 746 135 52 304 59 438
18z"/>
<path d="M900 3540 c-95 -20 -196 -86 -249 -163 -53 -78 -74 -155 -69 -255 3
-75 9 -100 36 -155 78 -157 255 -249 425 -220 133 22 250 111 305 230 36 80
43 213 14 295 -55 156 -189 260 -354 272 -35 3 -83 1 -108 -4z m141 -191 c150
-45 202 -244 93 -353 -88 -88 -225 -86 -311 5 -41 43 -53 77 -53 145 0 66 26
122 75 161 62 50 124 63 196 42z"/>
<path d="M3903 1949 c-77 -24 -175 -96 -219 -162 -156 -228 -81 -533 160 -653
94 -46 186 -61 274 -45 229 42 384 238 369 465 -6 101 -33 174 -92 248 -115
146 -311 205 -492 147z m270 -198 c80 -49 127 -132 126 -221 0 -103 -44 -177
-131 -226 -45 -24 -64 -29 -123 -29 -83 1 -132 23 -187 83 -136 151 -52 392
147 422 55 8 129 -5 168 -29z"/>
<path d="M2245 2381 c-76 -22 -99 -98 -46 -152 48 -48 116 -38 147 22 35 68
-29 150 -101 130z"/>
</g>
</svg>
